# xmcd
#
# Track frame offsets: 
#        150
#        12544
#        31913
#        52776
#        62241
#        83907
#        97746
#        112056
#        125722
#        135844
#        151213
#        167825
#
# Disc length: 2480 seconds
#
# Revision: 0
# Processed by: cddbd v1.5.2PL0 Copyright (c) Steve Scherf et al.
# Submitted via: ExactAudioCopy v0.99pb3
#
DISCID=9209ae0c
DTITLE=Desert Hearts - Hotsy Totsy Nagasaki
DYEAR=2006
DGENRE=Gargleblast
TTITLE0=D Moon Pilot
TTITLE1=Sea Punk
TTITLE2=Gravitas
TTITLE3=Central Line
TTITLE4=Goodbye To Everything
TTITLE5=Urchin
TTITLE6=Ocean
TTITLE7=New Kings
TTITLE8=Black Albino
TTITLE9=Bone Song
TTITLE10=Apple
TTITLE11=Hotsy Totsy Nagasaki
EXTD=
EXTT0=
EXTT1=
EXTT2=
EXTT3=
EXTT4=
EXTT5=
EXTT6=
EXTT7=
EXTT8=
EXTT9=
EXTT10=
EXTT11=
PLAYORDER=
